# xmcd
#
# Track frame offsets: 
#        150
#        19525
#        28353
#        43221
#        63384
#        84096
#        105247
#        120443
#        138689
#        163414
#        191713
#        209908
#        227058
#        246398
#        275553
#
# Disc length: 3923 seconds
#
# Revision: 1
# Processed by: cddbd v1.5.1PL2 Copyright (c) Steve Scherf et al.
# Submitted via: ExactAudioCopy v0.95b4
#
DISCID=de0f510f
DTITLE=Various Artist - Lucerne Blues Festival 2000 - CD2
DYEAR=2000
DGENRE=Blues
TTITLE0=Freddie Waters - It Tears Me Up
TTITLE1=Sam Carr - That's Alright
TTITLE2=Kirk "Eli" Fletcher - Mr. Mann
TTITLE3=Kenny Neal - What You Got
TTITLE4=Little Arthur Duncan - Pretty Thing
TTITLE5=Michael Burks - From The Inside Out
TTITLE6=Homesick James - Early One Morning
TTITLE7=Vicki Carrico - Love Is A Gift
TTITLE8=John Primer - Sweet As A Georgia Peach
TTITLE9=Neal Pattman - Black Night Is Falling
TTITLE10=Jimmy Morello - I Got To Know
TTITLE11=Little Al Thomas And The Crazy House Band - I Got Find My Bab
TTITLE11=y
TTITLE12=Magic Slim And The Teardrops - What's Wrong
TTITLE13=Fillmore Slim - Other Side Of The Road
TTITLE14=Ken Saydak - Foolish Man
EXTD=
EXTT0=Freddie Waters
EXTT1=Sam Carr
EXTT2=Kirk "Eli" Fletcher
EXTT3=Kenny Neal
EXTT4=Little Arthur Duncan
EXTT5=Michael Burks
EXTT6=Homesick James
EXTT7=Vicki Carrico
EXTT8=John Primer
EXTT9=Neal Pattman
EXTT10=Jimmy Morello
EXTT11=Little Al Thomas and the Crazy House Band
EXTT12=Magic Slim and the Teardrops
EXTT13=Fillmore Slim
EXTT14=Ken Saydak
PLAYORDER=
